inDegrees=no
num_controls=7
num_derivatives=13
num_iterations=228
num_multipliers=7
num_parameters=0
num_slacks=7
num_states=26
objective=0.509689
objective_accelerations=0.041351
objective_balance=0.003552
objective_effort=0.029505
objective_height=0.322676
objective_ligament=0.112605
solver_duration=2865.289529
status=Solve_Succeeded
success=true
DataType=double
version=3
OpenSimVersion=4.5
endheader
time	/jointset/ground_pelvis/pelvis_tilt/value	/jointset/ground_pelvis/pelvis_tx/value	/jointset/ground_pelvis/pelvis_ty/value	/jointset/hip_l/hip_flexion_l/value	/jointset/hip_l/hip_adduction_l/value	/jointset/hip_l/hip_rotation_l/value	/jointset/back/lumbar_extension/value	/jointset/patellofemoral_l/patellar_flexion_l/value	/jointset/knee_l/knee_flexion_l/value	/jointset/knee_l/knee_adduction_l/value	/jointset/knee_l/knee_rotation_l/value	/jointset/ankle_l/ankle_angle_l/value	/jointset/subtalar_l/subtalar_angle_l/value	/jointset/ground_pelvis/pelvis_tilt/speed	/jointset/ground_pelvis/pelvis_tx/speed	/jointset/ground_pelvis/pelvis_ty/speed	/jointset/hip_l/hip_flexion_l/speed	/jointset/hip_l/hip_adduction_l/speed	/jointset/hip_l/hip_rotation_l/speed	/jointset/back/lumbar_extension/speed	/jointset/patellofemoral_l/patellar_flexion_l/speed	/jointset/knee_l/knee_flexion_l/speed	/jointset/knee_l/knee_adduction_l/speed	/jointset/knee_l/knee_rotation_l/speed	/jointset/ankle_l/ankle_angle_l/speed	/jointset/subtalar_l/subtalar_angle_l/speed	/forceset/tau_hip_flexion_l	/forceset/tau_hip_adduction_l	/forceset/tau_hip_rotation_l	/forceset/tau_knee_flexion_l	/forceset/tau_ankle_angle_l	/forceset/tau_subtalar_angle_l	/forceset/tau_lumbar_extension	lambda_cid13_p0	lambda_cid13_p1	lambda_cid13_p2	lambda_cid13_p3	lambda_cid13_p4	lambda_cid13_p5	lambda_cid14_p0	/jointset/ground_pelvis/pelvis_tilt/accel	/jointset/ground_pelvis/pelvis_tx/accel	/jointset/ground_pelvis/pelvis_ty/accel	/jointset/hip_l/hip_flexion_l/accel	/jointset/hip_l/hip_adduction_l/accel	/jointset/hip_l/hip_rotation_l/accel	/jointset/back/lumbar_extension/accel	/jointset/patellofemoral_l/patellar_flexion_l/accel	/jointset/knee_l/knee_flexion_l/accel	/jointset/knee_l/knee_adduction_l/accel	/jointset/knee_l/knee_rotation_l/accel	/jointset/ankle_l/ankle_angle_l/accel	/jointset/subtalar_l/subtalar_angle_l/accel	gamma_cid13_p0	gamma_cid13_p1	gamma_cid13_p2	gamma_cid13_p3	gamma_cid13_p4	gamma_cid13_p5	gamma_cid14_p0
0.5	-0.1132038634436592	-0.05000684535232358	0.8273177027828378	0.8778186062838269	-0.3115794449632301	-0.1370140212738601	-0.781389461164304	0.7899631831199226	0.7899631831199996	-0.07704251053193269	-0.171880778060078	0.0854078644515766	0.01158283776098293	-0.2216282302280965	-0.1666880917368991	-0.3509954596284693	1.512510599278019	-0.1097230253683746	0.5559394354628826	-0.8739972597760791	1.551249061580712	1.55124906158071	-0.01046637804201499	0.01479485335127663	0.3301166837409676	-0.01019067811661851	-0.2818947561523901	0.03775277658769384	-0.007246253299587216	-0.1980468436856543	0.0953924341220693	0.04212853866283386	0.3296552692206937	-13.40967983932966	-17.10487062974943	3.593545578042773	-8.063668649211492	-697.1910958963588	-66.86336447661651	-14.77706247639694	0.4162589881642121	0.6636259487484477	-0.2090426362062504	-1.186924731822927	0.4236418207528619	-0.07803616962355081	1.75430411533407	-0.6116062109874943	-0.6116062109875131	-0.0720115178837186	-0.01483275155647163	0.2845231568671319	0.5414771865042642	-1.942633620061435e-07	-4.688466842923849e-07	7.76816550593239e-07	2.994169562447119e-08	-1.998961734345832e-07	-9.414006350416387e-08	-1.698872126729765e-07
0.51	-0.1153991622175454	-0.0516404099755698	0.8237982523255254	0.8928810807267522	-0.3126561742736912	-0.1314595162459276	-0.7900401507390864	0.8054411135089108	0.8054411135089538	-0.0771526155605536	-0.1717343356899302	0.08872172047449943	0.01150676823019212	-0.2174180426625115	-0.1600130927998283	-0.3527991647604676	1.499694974469947	-0.1056194162502686	0.554828759613307	-0.8559772818995485	1.543977410066535	1.543977410066536	-0.01156465841310964	0.01446724912061093	0.3325404829548937	-0.005053338425129199	-0.2896354274562701	0.03858819053394719	-0.007268061586825826	-0.2001993177361132	0.09373456054109251	0.04256247017917338	0.3371353537805424	-14.23525584126615	-17.11562498152878	3.55739470072344	-7.801504402539395	-702.3171446147547	-66.71793912308488	-14.19985970250174	0.4254017391731608	0.6712043914236634	-0.1517539104991796	-1.372302007359196	0.4041853086074174	-0.1476626747007238	1.850350615972058	-0.8388518565577618	-0.8388518565570764	-0.1302957954468012	-0.04552033473289983	0.2041829556009783	0.4953274677157437	-1.920578137623199e-07	-4.235109328973819e-07	7.757616692582828e-07	3.647962782265092e-08	-1.939864754552435e-07	-7.339795112621289e-08	-1.651720096940371e-07
0.52	-0.1175519584960935	-0.05320687110439783	0.8202636209251324	0.9078067147911837	-0.3136917745227184	-0.125920133852906	-0.7985057393366719	0.8208355459357712	0.8208355459357823	-0.0772740152926268	-0.1715919285772729	0.09205638941995056	0.01148116511776505	-0.2131277311602229	-0.1532673928532582	-0.3540316482445701	1.485142523579484	-0.1014972130814424	0.552914908480684	-0.8369770643366375	1.534549469155362	1.534549469155368	-0.01272531873318297	0.01398780185349433	0.3342792682466444	-9.739444386030449e-05	-0.2973760987601516	0.03942360448019801	-0.007289869874043324	-0.2023517917865735	0.09207668696011442	0.04299640169550936	0.3446154383403904	-15.05960772079447	-17.12828188457332	3.523476393420779	-7.594633849153454	-707.4656259469167	-66.61132769010591	-13.61720102652661	0.4322837755049637	0.6777661506482653	-0.09479830662709315	-1.534289948301197	0.4273606308969044	-0.238671226233006	1.950352052610159	-1.042864090386504	-1.042864090386523	-0.0844875076794537	-0.04520135884664116	0.1475203724320104	0.5051980444601712	-1.883553820809143e-07	-3.667860706848474e-07	7.708601932209766e-07	4.443493091763875e-08	-1.866874766211623e-07	-4.914642227956378e-08	-1.585732360004195e-07
0.53	-0.1196616844987234	-0.05470567148089218	0.8167196488926918	0.9225780816413166	-0.3146862163798103	-0.1204039279347931	-0.806776706814652	0.8361242896226522	0.8361242896226531	-0.07740768488831343	-0.1714551046818095	0.09540457843109096	0.01150388229699063	-0.2088286218162814	-0.1464956340120966	-0.3546536635912577	1.468830787126589	-0.09741133897131399	0.5501751050543969	-0.8170803562059027	1.522771091910418	1.522771091910421	-0.01405954378768688	0.01332985609398872	0.3351961779802486	0.004567504293691049	-0.3047116920151606	0.0400849440933029	-0.007305247716909852	-0.205032353499095	0.09052208311399902	0.04328635284576762	0.3517342221996462	-15.88567489374327	-17.07242377891068	3.472141445111083	-7.127819146976637	-712.9022459664614	-66.4843497226334	-13.03023891764672	0.4270325742886535	0.6764477385077411	-0.02957552158668064	-1.724647748428213	0.3961126777963763	-0.3144535280255855	2.029741451357128	-1.30951996665402	-1.30951996665456	-0.1655702712736165	-0.08300302611457477	0.03940684483289364	0.4361015291180533	-1.794564277157625e-07	-3.008188171376595e-07	7.521867982366349e-07	4.866057082234876e-08	-1.696058828228989e-07	-2.593321768568504e-08	-1.489085500066184e-07
0.54	-0.121728757795825	-0.05613684087144336	0.8131727222322047	0.9371773246759907	-0.3156404171204564	-0.114919683776383	-0.8148446249597147	0.851282410452062	0.851282410452054	-0.07755623278792939	-0.1713262426122649	0.09875706265376898	0.01157104161173475	-0.2045971900543411	-0.1397411956646198	-0.3546225738538302	1.450717760487911	-0.09344898979216062	0.5465225565401476	-0.7963671977530881	1.508424897661246	1.508424897661244	-0.01570097951970106	0.01239543667000119	0.3351383105541832	0.008791032659860266	-0.3120472852701708	0.04074628370640523	-0.007320625559756938	-0.2077129152116177	0.0889674792678824	0.04357630399602232	0.3588530060589012	-16.71202021776134	-17.0180852417622	3.422841156035683	-6.709119875486251	-718.3798282812977	-66.39592116592834	-12.44045395341007	0.4187482591047425	0.674302051911312	0.03582271019593253	-1.894547985457846	0.4026556447019028	-0.4212202438254571	2.113642117026153	-1.556427491232282	-1.556427491232269	-0.1459296431815068	-0.1004960917430164	-0.04743505950194905	0.4169239701837353	-1.648081291047638e-07	-2.246259391351104e-07	7.182763865449346e-07	4.875977485696408e-08	-1.417009924685188e-07	-3.868797371467131e-09	-1.358517908296355e-07
0.55	-0.1237539427664572	-0.05750070486313717	0.8096293002978731	0.9515870912865065	-0.316555536703594	-0.1094762077184018	-0.8227019036141778	0.8662848543295542	0.8662848543295248	-0.07772243878995036	-0.1712078457557155	0.102104256742219	0.01167835894366676	-0.2004558563705272	-0.1330489472066157	-0.3539580287972993	1.430983470965747	-0.08960085412277458	0.542037750486448	-0.7750145811659912	1.491682290187422	1.491682290187421	-0.0175828313227281	0.01124123916721641	0.3341447243051275	0.01259426677986444	-0.3184555166257039	0.04114684003807165	-0.007319379920956674	-0.21069561335401	0.08759863171445377	0.04369630064374627	0.3649985813196467	-17.45319309944839	-16.89917743058089	3.356767965928998	-6.148185772243226	-723.2277207848276	-66.24084882924173	-11.84949714761121	0.4093999987046675	0.6640943255920692	0.09731273962080156	-2.050704367073696	0.3719319118204725	-0.4824606874420547	2.157164225609538	-1.79038977693377	-1.790389776933766	-0.2157204758712138	-0.1291451279866504	-0.1486976074155034	0.3502460674972993	-1.505842005397304e-07	-1.691740548635173e-07	6.804643937788657e-07	4.650671434915563e-08	-1.172699199998755e-07	1.217704769498745e-08	-1.243803705274248e-07
0.5600000000000001	-0.1257381995851151	-0.05879816475368146	0.8060956322813546	0.9657919480155046	-0.3174329670532857	-0.104081649701218	-0.8303434375435585	0.8811084296520131	0.8811084296519627	-0.07790874481540021	-0.1711022435838837	0.1054368395282168	0.01182135320371646	-0.1964115596593129	-0.1264603754347167	-0.3526717902912038	1.409735784184466	-0.08591114310284588	0.5367389483807538	-0.7532182527365711	1.472651186654544	1.472651186654543	-0.01972098420607144	0.009836499726814147	0.3322160500637469	0.01592641828341068	-0.324863747981238	0.04154739636973578	-0.007318134282140008	-0.2136783114964035	0.08622978416102395	0.04381629729146701	0.3711441565803918	-18.19746495314707	-16.78118813303377	3.292511147194728	-5.62186209044321	-728.1510808822766	-66.12347987525452	-11.25909091983009	0.3993408645848594	0.6535667146902741	0.1601614001088504	-2.197227437281175	0.3709707148104355	-0.5840194542243501	2.202384485490822	-2.014126703043109	-2.014126703043112	-0.1971898592447648	-0.1506044792665039	-0.2344526579669441	0.3227074468921411	-1.368695160298552e-07	-1.386113630690706e-07	6.379705037235547e-07	4.143093639043876e-08	-9.700742899411628e-08	2.100060246412624e-08	-1.148113568749408e-07
